<?xml version='1.0' encoding='UTF-8'?>
<mxfile host="py-mxgraph">
  <diagram id="idunno###" name="Page-1">
    <mxGraphModel>
      <root>
        <mxCell id="0" vertex_type="Vertex.ETC" />
        <mxCell id="1" parent="0" vertex_type="Vertex.ETC" />
        <mxCell id="idunno-0" parent="1" style="shape=rectangle;whiteSpace=wrap;html=1;aspect=fixed;" value="Hello#!" vertex="1" vertex_type="Vertex.ETC">
          <mxGeometry x="100" y="100" width="90" height="30" as="geometry" />
        </mxCell>
        <mxCell id="idunno-1" parent="1" style="shape=rectangle;whiteSpace=wrap;html=1;aspect=fixed;" value="Goodbye!" vertex="1" vertex_type="Vertex.ETC">
          <mxGeometry x="600" y="100" width="90" height="30" as="geometry" />
        </mxCell>
        <mxCell id="idunno-2" parent="1" style="edgeStyle=orthogonalEdgeStyle;curved=0;orthogonalLoop=1;jettySize=auto;html=1;jumpStyle=arc;" source="idunno-0" target="idunno-1" value="TEST" vertex_type="Vertex.ETC" edge="1">
          <mxGeometry relative="1" as="geometry" />
        </mxCell>
        <mxCell id="idunno-3" parent="1" style="shape=rectangle;whiteSpace=wrap;html=1;aspect=fixed;" value="Hello#!" vertex="1" vertex_type="Vertex.ETC">
          <mxGeometry x="100" y="200" width="90" height="30" as="geometry" />
        </mxCell>
        <mxCell id="idunno-4" parent="1" style="shape=rectangle;whiteSpace=wrap;html=1;aspect=fixed;" value="Goodbye!" vertex="1" vertex_type="Vertex.ETC">
          <mxGeometry x="600" y="200" width="90" height="30" as="geometry" />
        </mxCell>
        <mxCell id="idunno-5" parent="1" style="edgeStyle=orthogonalEdgeStyle;curved=0;orthogonalLoop=1;jettySize=auto;html=1;jumpStyle=arc;exitX=0;exitY=0.5;entryX=0.5;entryY=1;" source="idunno-3" target="idunno-4" value="TEST" vertex_type="Vertex.ETC" edge="1">
          <mxGeometry relative="1" as="geometry" />
        </mxCell>
        <mxCell id="idunno-6" parent="1" style="shape=rectangle;whiteSpace=wrap;html=1;aspect=fixed;" value="Hello#!" vertex="1" vertex_type="Vertex.ETC">
          <mxGeometry x="100" y="300" width="90" height="30" as="geometry" />
        </mxCell>
        <mxCell id="idunno-7" parent="1" style="shape=rectangle;whiteSpace=wrap;html=1;aspect=fixed;" value="Goodbye!" vertex="1" vertex_type="Vertex.ETC">
          <mxGeometry x="600" y="300" width="90" height="30" as="geometry" />
        </mxCell>
        <mxCell id="idunno-8" parent="1" style="edgeStyle=orthogonalEdgeStyle;curved=0;orthogonalLoop=1;jettySize=auto;html=1;jumpStyle=arc;exitX=0;exitY=0.2;entryX=0.5;entryY=1;" source="idunno-6" target="idunno-7" value="TEST" vertex_type="Vertex.ETC" edge="1">
          <mxGeometry relative="1" as="geometry" />
        </mxCell>
        <mxCell id="idunno-9" parent="1" style="shape=rectangle;whiteSpace=wrap;html=1;aspect=fixed;" value="Hello#!" vertex="1" vertex_type="Vertex.ETC">
          <mxGeometry x="100" y="400" width="90" height="30" as="geometry" />
        </mxCell>
        <mxCell id="idunno-10" parent="1" style="shape=rectangle;whiteSpace=wrap;html=1;aspect=fixed;" value="Goodbye!" vertex="1" vertex_type="Vertex.ETC">
          <mxGeometry x="600" y="400" width="90" height="30" as="geometry" />
        </mxCell>
        <mxCell id="idunno-11" parent="1" style="edgeStyle=orthogonalEdgeStyle;curved=0;orthogonalLoop=1;jettySize=auto;html=1;jumpStyle=arc;exitX=0.5;exitY=0;entryX=0.5;entryY=1;" source="idunno-9" target="idunno-10" value="TEST" vertex_type="Vertex.ETC" edge="1">
          <mxGeometry relative="1" as="geometry" />
        </mxCell>
        <mxCell id="idunno-12" parent="1" style="shape=rectangle;whiteSpace=wrap;html=1;aspect=fixed;" value="Hello#!" vertex="1" vertex_type="Vertex.ETC">
          <mxGeometry x="100" y="600" width="90" height="30" as="geometry" />
        </mxCell>
        <mxCell id="idunno-13" parent="1" style="shape=rectangle;whiteSpace=wrap;html=1;aspect=fixed;" value="Goodbye!" vertex="1" vertex_type="Vertex.ETC">
          <mxGeometry x="600" y="600" width="90" height="30" as="geometry" />
        </mxCell>
        <mxCell id="idunno-14" parent="1" style="edgeStyle=orthogonalEdgeStyle;curved=0;orthogonalLoop=1;jettySize=auto;html=1;jumpStyle=arc;exitX=0.5;exitY=0;entryX=0.5;entryY=1;" source="idunno-12" target="idunno-13" value="TEST" vertex_type="Vertex.ETC" edge="1">
          <mxGeometry relative="1" as="geometry" />
        </mxCell>
        <mxCell id="idunno-15" parent="1" style="edgeStyle=orthogonalEdgeStyle;curved=0;orthogonalLoop=1;jettySize=auto;html=1;jumpStyle=arc;exitX=0.7;exitY=0;entryX=0.7;entryY=1;" source="idunno-12" target="idunno-13" value="TEST" vertex_type="Vertex.ETC" edge="1">
          <mxGeometry relative="1" as="geometry" />
        </mxCell>
        <mxCell id="idunno-16" parent="1" style="shape=rectangle;whiteSpace=wrap;html=1;aspect=fixed;" value="Hello#!" vertex="1" vertex_type="Vertex.ETC">
          <mxGeometry x="100" y="800" width="90" height="30" as="geometry" />
        </mxCell>
        <mxCell id="idunno-17" parent="1" style="shape=rectangle;whiteSpace=wrap;html=1;aspect=fixed;" value="Goodbye!" vertex="1" vertex_type="Vertex.ETC">
          <mxGeometry x="600" y="800" width="90" height="30" as="geometry" />
        </mxCell>
        <mxCell id="idunno-18" parent="1" style="edgeStyle=orthogonalEdgeStyle;curved=0;orthogonalLoop=1;jettySize=auto;html=1;jumpStyle=arc;exitX=0.5;exitY=0;entryX=0.5;entryY=1;" source="idunno-16" target="idunno-17" value="TEST" vertex_type="Vertex.ETC" edge="1">
          <mxGeometry relative="1" as="geometry" />
        </mxCell>
        <mxCell id="idunno-19" parent="1" style="edgeStyle=orthogonalEdgeStyle;curved=0;orthogonalLoop=1;jettySize=auto;html=1;jumpStyle=arc;exitX=0.7;exitY=0;entryX=0.7;entryY=1;" source="idunno-16" target="idunno-17" value="TEST" vertex_type="Vertex.ETC" edge="1">
          <mxGeometry relative="1" as="geometry">
            <Array as="points">
              <mxPoint x="163" y="750" />
              <mxPoint x="430" y="750" />
              <mxPoint x="430" y="870" />
              <mxPoint x="663" y="870" />
            </Array>
          </mxGeometry>
        </mxCell>
      </root>
    </mxGraphModel>
  </diagram>
</mxfile>